REM DIRINDEX 1\4,1\2\5,1\2\6,1\3\7,1\3\8
REM DIRNAME folder01,folder02,folder03,folder04,folder05,folder06,folder07,folder08
TITLE ""
FILE "098_Day49_Check3_Sentences.mp3" MP3
  TRACK 01 AUDIO
    TITLE "0:"
    INDEX 01 00:00:00
  TRACK 02 AUDIO
    TITLE "4:cjc124_3204"
    INDEX 01 00:00:25
  TRACK 03 AUDIO
    TITLE "0:"
    INDEX 01 00:02:00
  TRACK 04 AUDIO
    TITLE "7:cjc124_3205"
    INDEX 01 00:02:45
  TRACK 05 AUDIO
    TITLE "0:"
    INDEX 01 00:07:17
  TRACK 06 AUDIO
    TITLE "8:cjc124_3206"
    INDEX 01 00:07:37
  TRACK 07 AUDIO
    TITLE "0:"
    INDEX 01 00:12:01
  TRACK 08 AUDIO
    TITLE "7:cjc124_3207"
    INDEX 01 00:12:36
  TRACK 09 AUDIO
    TITLE "0:"
    INDEX 01 00:15:30
  TRACK 10 AUDIO
    TITLE "8:cjc124_3208"
    INDEX 01 00:15:50
  TRACK 11 AUDIO
    TITLE "0:"
    INDEX 01 00:18:70
  TRACK 12 AUDIO
    TITLE "7:cjc124_3209"
    INDEX 01 00:19:30
  TRACK 13 AUDIO
    TITLE "0:"
    INDEX 01 00:22:27
  TRACK 14 AUDIO
    TITLE "8:cjc124_3210"
    INDEX 01 00:22:44
  TRACK 15 AUDIO
    TITLE "0:"
    INDEX 01 00:25:07
  TRACK 16 AUDIO
    TITLE "7:cjc124_3211"
    INDEX 01 00:25:45
  TRACK 17 AUDIO
    TITLE "0:"
    INDEX 01 00:28:57
  TRACK 18 AUDIO
    TITLE "8:cjc124_3212"
    INDEX 01 00:28:72
  TRACK 19 AUDIO
    TITLE "0:"
    INDEX 01 00:32:45
  TRACK 20 AUDIO
    TITLE "7:cjc124_3213"
    INDEX 01 00:33:07
  TRACK 21 AUDIO
    TITLE "0:"
    INDEX 01 00:35:37
  TRACK 22 AUDIO
    TITLE "8:cjc124_3214"
    INDEX 01 00:35:55
  TRACK 23 AUDIO
    TITLE "0:"
    INDEX 01 00:39:03
  TRACK 24 AUDIO
    TITLE "7:cjc124_3215"
    INDEX 01 00:39:39
  TRACK 25 AUDIO
    TITLE "0:"
    INDEX 01 00:43:31
  TRACK 26 AUDIO
    TITLE "8:cjc124_3216"
    INDEX 01 00:43:48
  TRACK 27 AUDIO
    TITLE "0:"
    INDEX 01 00:47:38
  TRACK 28 AUDIO
    TITLE "7:cjc124_3217"
    INDEX 01 00:48:00
  TRACK 29 AUDIO
    TITLE "0:"
    INDEX 01 00:50:64
  TRACK 30 AUDIO
    TITLE "8:cjc124_3218"
    INDEX 01 00:51:07
  TRACK 31 AUDIO
    TITLE "0:"
    INDEX 01 00:54:19
  TRACK 32 AUDIO
    TITLE "7:cjc124_3219"
    INDEX 01 00:54:58
  TRACK 33 AUDIO
    TITLE "0:"
    INDEX 01 00:58:46
  TRACK 34 AUDIO
    TITLE "8:cjc124_3220"
    INDEX 01 00:58:64
  TRACK 35 AUDIO
    TITLE "0:"
    INDEX 01 01:02:71
  TRACK 36 AUDIO
    TITLE "7:cjc124_3221"
    INDEX 01 01:03:35
  TRACK 37 AUDIO
    TITLE "0:"
    INDEX 01 01:06:36
  TRACK 38 AUDIO
    TITLE "8:cjc124_3222"
    INDEX 01 01:06:53
  TRACK 39 AUDIO
    TITLE "0:"
    INDEX 01 01:09:40
  TRACK 40 AUDIO
    TITLE "7:cjc124_3223"
    INDEX 01 01:10:06
  TRACK 41 AUDIO
    TITLE "0:"
    INDEX 01 01:12:07
  TRACK 42 AUDIO
    TITLE "8:cjc124_3224"
    INDEX 01 01:12:30
  TRACK 43 AUDIO
    TITLE "0:"
    INDEX 01 01:14:55
  TRACK 44 AUDIO
    TITLE "7:cjc124_3225"
    INDEX 01 01:15:17
  TRACK 45 AUDIO
    TITLE "0:"
    INDEX 01 01:19:58
  TRACK 46 AUDIO
    TITLE "8:cjc124_3226"
    INDEX 01 01:20:00
  TRACK 47 AUDIO
    TITLE "0:"
    INDEX 01 01:23:34
  TRACK 48 AUDIO
    TITLE "7:cjc124_3227"
    INDEX 01 01:23:73
  TRACK 49 AUDIO
    TITLE "0:"
    INDEX 01 01:27:03
  TRACK 50 AUDIO
    TITLE "8:cjc124_3228"
    INDEX 01 01:27:22
  TRACK 51 AUDIO
    TITLE "0:"
    INDEX 01 01:30:58
  TRACK 52 AUDIO
    TITLE "7:cjc124_3229"
    INDEX 01 01:31:18
  TRACK 53 AUDIO
    TITLE "0:"
    INDEX 01 01:34:28
  TRACK 54 AUDIO
    TITLE "8:cjc124_3230"
    INDEX 01 01:34:46
  TRACK 55 AUDIO
    TITLE "0:"
    INDEX 01 01:37:60
  TRACK 56 AUDIO
    TITLE "7:cjc124_3231"
    INDEX 01 01:38:24
  TRACK 57 AUDIO
    TITLE "0:"
    INDEX 01 01:41:69
  TRACK 58 AUDIO
    TITLE "8:cjc124_3232"
    INDEX 01 01:42:12
  TRACK 59 AUDIO
    TITLE "0:"
    INDEX 01 01:46:04
  TRACK 60 AUDIO
    TITLE "7:cjc124_3233"
    INDEX 01 01:46:41
  TRACK 61 AUDIO
    TITLE "0:"
    INDEX 01 01:49:04
  TRACK 62 AUDIO
    TITLE "8:cjc124_3234"
    INDEX 01 01:49:32
  TRACK 63 AUDIO
    TITLE "0:"
    INDEX 01 01:52:20
  TRACK 64 AUDIO
    TITLE "7:cjc124_3235"
    INDEX 01 01:52:57
  TRACK 65 AUDIO
    TITLE "0:"
    INDEX 01 01:55:34
  TRACK 66 AUDIO
    TITLE "8:cjc124_3236"
    INDEX 01 01:55:50
  TRACK 67 AUDIO
    TITLE "0:"
    INDEX 01 01:58:40
